<svg width="33" height="32" viewBox="0 0 33 32" fill="none" xmlns="http://www.w3.org/2000/svg">
<path d="M12.6421 30.7661H4.24209C4.18686 30.7661 4.14209 30.7213 4.14209 30.6661V14.8661C4.14209 14.8109 4.09732 14.7661 4.04209 14.7661H0.901994C0.810433 14.7661 0.767018 14.6533 0.834965 14.5919L16.0761 0.825702C16.1137 0.79172 16.1708 0.79127 16.209 0.824655L31.9418 14.5909C32.0113 14.6517 31.9683 14.7661 31.8759 14.7661H28.7421C28.6869 14.7661 28.6421 14.8109 28.6421 14.8661V30.6661C28.6421 30.7213 28.5973 30.7661 28.5421 30.7661H20.1421M12.6421 30.7661V19.8661C12.6421 19.8109 12.6869 19.7661 12.7421 19.7661H20.0421C20.0973 19.7661 20.1421 19.8109 20.1421 19.8661V30.7661M12.6421 30.7661H20.1421" stroke="#575353" stroke-width="1.6"/>
<path d="M4.14209 11.7661V2.06611C4.14209 1.90043 4.2764 1.76611 4.44209 1.76611H8.34209C8.50778 1.76611 8.64209 1.90043 8.64209 2.06611V7.76611" stroke="#575353" stroke-width="1.6"/>
</svg>
