<svg width="104" height="100" viewBox="0 0 104 100" fill="none" xmlns="http://www.w3.org/2000/svg">
<path d="M39.7739 97.0241H13.2406C13.0661 97.0241 12.9247 96.8827 12.9247 96.7082V46.8003C12.9247 46.6258 12.7833 46.4844 12.6088 46.4844H2.69011C2.40089 46.4844 2.26375 46.128 2.47838 45.9341L50.6211 2.45043C50.7399 2.34309 50.9203 2.34167 51.0408 2.44713L100.736 45.9308C100.956 46.1229 100.82 46.4844 100.528 46.4844H90.6295C90.455 46.4844 90.3136 46.6258 90.3136 46.8003V96.7082C90.3136 96.8827 90.1722 97.0241 89.9977 97.0241H63.4644M39.7739 97.0241V62.594C39.7739 62.4195 39.9153 62.2781 40.0898 62.2781H63.1485C63.323 62.2781 63.4644 62.4195 63.4644 62.594V97.0241M39.7739 97.0241H63.4644" stroke="#575353" stroke-width="4.7381"/>
<path d="M12.9248 37.0082V6.36852C12.9248 5.84516 13.3491 5.4209 13.8724 5.4209H26.1915C26.7148 5.4209 27.1391 5.84516 27.1391 6.36852V24.3733" stroke="#575353" stroke-width="4.7381"/>
</svg>
